<?xml version="1.0" encoding="UTF-8"?>
<!-- Generated by Pixelmator Pro 3.0.1 -->
<svg width="621" height="621" viewBox="0 0 621 621" xmlns="http://www.w3.org/2000/svg" xmlns:xlink="http://www.w3.org/1999/xlink">
    <path id="Path" fill="#f63299" stroke="none" d="M 234.62616 350.400269 C 220.607635 339.218536 213.4431 325.130646 213.471634 307.37851 C 213.50322 287.717163 214.020477 268.011414 212.932922 248.402283 C 210.131729 197.895996 249.950699 151.566772 302.149963 145.25238 C 339.744232 140.704712 380.230682 162.043854 400.078613 197.497498 C 407.393738 210.56427 411.322266 224.403717 411.062073 239.478149 C 410.596619 266.450714 410.440674 293.428528 410.02655 320.402191 C 409.817627 334.010132 403.457031 345.721283 397.794464 357.554016 C 396.096741 361.101654 392.491669 362.114563 388.778168 360.231293 C 385.087463 358.359619 384.046936 355.058807 385.454132 351.346375 C 387.221436 346.683746 389.8685 342.321686 391.319611 337.580139 C 393.297913 331.115753 395.471924 324.468597 395.837982 317.805145 C 396.549774 304.847321 395.955811 291.822418 396.103394 278.827606 C 396.230103 267.670959 396.476318 256.510742 396.948853 245.363892 C 398.388763 211.395752 382.119141 187.065704 354.097076 170.599426 C 301.191345 139.511047 239.550995 174.370636 228.474792 228.091888 C 227.210403 234.224304 227.18924 240.687927 227.207443 246.996155 C 227.267548 267.819824 227.674866 288.642242 227.82608 309.466003 C 227.973862 329.817535 245.441544 346.966003 266.194916 346.972473 C 287.129059 346.979004 304.860321 329.675781 304.924316 309.173218 C 304.939911 304.174103 304.837402 299.171997 304.979767 294.176697 C 305.098724 290.003693 307.722076 287.648712 311.597931 287.361145 C 315.36554 287.081573 318.429565 289.386414 318.698639 293.048706 C 319.921753 309.696228 319.471161 325.980652 308.427521 340.12735 C 290.371674 363.256622 258.941986 367.87674 234.62616 350.400269 Z"/>
    <path id="path1" fill="#f63299" stroke="none" d="M 282.297974 380.34668 C 254.72905 385.572693 231.148102 378.484955 211.105988 359.553986 C 206.693115 355.385773 206.232513 351.610229 209.341034 348.280487 C 212.52211 344.872986 216.583496 345.321442 221.043091 349.57254 C 252.1996 379.272278 301.164337 372.142487 322.095642 334.477325 C 325.109253 329.054474 326.850067 322.240509 326.985687 316.022491 C 327.523254 291.37442 327.191376 266.707306 327.176819 242.047241 C 327.171783 233.501373 321.637878 227.205872 313.604736 226.587463 C 305.653137 225.975311 298.272491 231.878784 296.98587 240.049011 C 296.62561 242.336761 296.646515 244.698486 296.643982 247.026428 C 296.621063 268.187408 296.634369 289.348389 296.631622 310.509399 C 296.630005 322.913605 288.897736 333.756531 276.855438 338.25885 C 265.792267 342.395111 253.289261 339.119751 245.05687 329.891388 C 239.038345 323.144714 236.024536 315.241638 236.027725 306.187561 C 236.035202 285.02655 236.885193 263.823059 235.836914 242.714111 C 234.075241 207.239685 260.658386 181.082947 283.72226 172.109314 C 290.633789 169.420227 298.054657 167.912354 305.350952 166.381836 C 310.90271 165.217285 314.620422 167.709839 315.264648 172.095459 C 315.925568 176.594788 313.311615 179.601746 307.491791 180.338928 C 285.760742 183.091553 269.26535 193.926361 257.447144 212.22113 C 252.204697 220.336548 250.14566 229.287415 250.130005 238.798706 C 250.093521 260.959381 249.994171 283.121338 250.220688 305.279694 C 250.25853 308.981934 251.143036 312.996002 252.775482 316.303772 C 258.595184 328.096191 272.241089 329.253143 279.886963 318.656189 C 281.398621 316.561096 282.146332 313.461243 282.167755 310.815979 C 282.345673 288.823303 282.208405 266.828339 282.291748 244.834534 C 282.356201 227.817566 293.047699 214.948914 308.99942 212.420166 C 324.884735 209.901917 341.467468 223.983093 341.49527 240.049774 C 341.535034 263.043549 340.853638 286.064331 341.750458 309.023956 C 342.737366 334.289093 330.780457 352.215546 311.977722 366.831757 C 303.331848 373.552612 293.480591 377.990173 282.297974 380.34668 Z"/>
    <path id="path2" fill="#f63299" stroke="none" d="M 433.11795 234.004272 C 432.989532 252.161377 432.888489 269.819641 432.739288 287.477478 C 432.723969 289.289917 433.069794 291.640625 432.109619 292.793152 C 430.365601 294.886566 427.946045 297.250671 425.478394 297.703613 C 422.155731 298.313477 419.523682 295.939514 418.812561 292.330872 C 418.494019 290.714569 418.426727 289.025116 418.441071 287.370544 C 418.57663 271.715973 417.997589 256.008698 419.090576 240.419403 C 420.902161 214.579376 411.275513 193.043701 395.234253 174.077148 C 373.220123 148.048523 344.66922 134.906555 310.537292 135.168945 C 260.154663 135.556244 214.422882 174.957581 205.955612 224.627716 C 205.731995 225.939514 205.488281 227.252228 205.163239 228.541626 C 204.056824 232.930664 200.617233 235.492981 196.946854 234.70929 C 192.905594 233.846375 190.537369 230.120361 191.342819 225.50769 C 194.08812 209.786072 199.01767 194.783569 207.605316 181.274994 C 233.234695 140.959473 269.874969 120.166077 317.85437 121.179138 C 371.973785 122.321869 422.725861 165.783997 432.382996 218.571075 C 433.272308 223.432129 432.911774 228.52179 433.11795 234.004272 Z"/>
    <path id="path3" fill="#f73399" stroke="none" d="M 319.355652 189.524231 C 332.512909 191.565369 343.576843 196.810455 352.715179 205.998718 C 360.608398 213.935059 364.919342 223.516724 364.979156 234.62854 C 365.103821 257.775238 363.701233 280.988373 365.019836 304.054504 C 366.42334 328.605469 354.764801 347.109222 341.182007 365.267853 C 338.018158 369.497589 334.181335 369.939362 330.817291 367.306061 C 327.290527 364.545288 327.336426 360.795807 330.299744 356.298981 C 335.414978 348.536682 340.491241 340.726624 345.106476 332.663361 C 349.292328 325.350189 350.787811 317.509399 350.572815 308.784607 C 350.068604 288.324463 350.789337 267.834076 351.016327 247.355957 C 351.03476 245.690613 350.993042 244.020203 351.107941 242.361023 C 352.220673 226.294739 345.709442 214.635193 331.054443 207.730713 C 315.626068 200.461761 300.961182 201.863037 287.39856 212.188232 C 277.785309 219.506775 272.970245 229.420288 273.034943 241.562317 C 273.131653 259.713531 273.301056 277.86438 273.417725 296.015503 C 273.428406 297.675964 273.446167 299.364899 273.174316 300.992828 C 272.539429 304.794647 270.147308 306.862885 266.324158 306.973328 C 262.624359 307.080261 260.481506 304.858582 259.469269 301.537781 C 259.091919 300.299774 259.146393 298.905945 259.140472 297.58255 C 259.06012 279.595551 259.557526 261.585815 258.824371 243.626099 C 257.370941 208.021484 290.721924 185.634033 319.355652 189.524231 Z"/>
    <path id="path4" fill="#f63399" stroke="none" d="M 373.766968 310.989929 C 373.496277 288.240143 373.294617 265.928802 372.914124 243.620514 C 372.80072 236.971008 372.621674 230.269562 371.708344 223.698151 C 369.937622 210.957458 360.519318 203.202515 351.605865 195.536621 C 346.895721 191.485718 341.061066 188.674255 335.543152 185.651855 C 331.033295 183.18158 329.114014 180.014526 330.603027 176.178833 C 332.215607 172.02475 336.021301 170.516113 340.959656 172.583679 C 358.809998 180.05719 372.417755 192.682678 381.789368 209.273315 C 385.134186 215.194702 386.282928 222.956299 386.501373 229.938416 C 387.370728 257.725403 387.478729 285.536255 387.86615 313.338318 C 388.056305 326.983795 382.9888 339.102936 376.363861 350.555847 C 370.286591 361.06192 363.542786 371.18808 356.933197 381.378204 C 353.689697 386.378845 349.307434 387.602509 345.665497 384.962708 C 342.159668 382.421661 342.067383 378.339539 345.203552 373.47995 C 351.248779 364.112732 357.404694 354.808411 363.150116 345.258606 C 369.389709 334.887451 374.000458 323.887909 373.766968 310.989929 Z"/>
    <path id="path5" fill="#f63298" stroke="none" d="M 204.535995 250.03772 C 204.880035 259.041565 205.046494 267.675232 205.151474 276.309631 C 205.329285 290.935516 205.132202 305.577454 205.810089 320.179321 C 206.040222 325.13678 208.134583 330.107544 209.928162 334.86441 C 211.722565 339.623474 211.155609 343.231873 207.427505 345.244873 C 203.531799 347.348328 199.068436 346.106995 197.329956 341.172607 C 194.71254 333.743561 191.723709 325.994904 191.427582 318.28476 C 190.611176 297.02887 191.128433 275.722351 191.072906 254.436035 C 191.063309 250.759155 192.284485 247.776611 195.827774 246.460144 C 199.398605 245.133423 202.329178 246.386871 204.535995 250.03772 Z"/>
    <path id="path6" fill="#f53298" stroke="none" d="M 304.927155 254.006683 C 304.929779 249.681183 304.854675 245.851807 304.95578 242.0271 C 305.069611 237.720764 307.291443 235.169006 311.667938 234.903687 C 315.819824 234.651978 318.851776 237.473755 318.925934 242.019592 C 319.083374 251.668488 319.084106 261.323547 318.926025 270.972412 C 318.851563 275.518494 315.811981 278.356537 311.674988 278.103516 C 307.301208 277.835968 305.045502 275.281555 304.960999 270.978455 C 304.85321 265.489136 304.929993 259.996246 304.927155 254.006683 Z"/>
</svg>
