<svg xmlns="http://www.w3.org/2000/svg" viewBox="0 0 32 32">
  <g fill="none" stroke="#E91E8C" stroke-width="5" stroke-linecap="round" stroke-linejoin="round">
    <path d="M3.5 22 C 3.5 11, 8 4, 16 4 C 24 4, 28.5 11, 28.5 22" />
    <path d="M6.5 24 C 6.5 13, 10 7, 16 7 C 22 7, 25.5 13, 25.5 24" />
    <path d="M9.5 26 C 9.5 15, 12 10, 16 10 C 20 10, 22.5 15, 22.5 26" />
    <path d="M12.5 27 C 12.5 17, 14 13, 16 13 C 18 13, 19.5 17, 19.5 27" />
    <path d="M16.5 27 L 16.5 19 C 16.5 17, 14.8 16, 13.7 17 C 12.6 18, 13 20, 14.5 20 L 16 20" />
    <path d="M3.8 25.5 C 4.1 24, 4.4 22.5, 4.7 21.2" />
    <path d="M28.2 25.5 C 27.9 24, 27.6 22.5, 27.3 21.2" />
  </g>
</svg>
